#N canvas 121 159 801 495 12;
#X obj 404 191 oscparse;
#X obj 404 213 list trim;
#X obj 404 169 netreceive -u -b 8000;
#X obj 404 242 list trim;
#X obj 402 263 route h0 h1 both;
#X msg 403 144 listen \$1;
#X obj 138 12 loadbang;
#X msg 138 36 8000;
#X floatatom 103 125 5 0 0 3 port_num - - 0;
#X obj 78 62 inlet;
#X obj 300 366 outlet;
#X obj 349 366 outlet;
#X obj 398 366 outlet;
#X obj 447 366 outlet;
#X connect 0 0 1 0;
#X connect 1 0 3 0;
#X connect 2 0 0 0;
#X connect 3 0 4 0;
#X connect 4 0 10 0;
#X connect 4 1 11 0;
#X connect 4 2 12 0;
#X connect 4 3 13 0;
#X connect 5 0 2 0;
#X connect 6 0 7 0;
#X connect 7 0 8 0;
#X connect 8 0 5 0;
#X connect 9 0 8 0;
#X coords 0 -1 1 1 100 60 1 100 100;
