#N canvas 592 177 761 459 12;
#N canvas 92 130 1307 652 sub_level 0;
#X obj -724 23 cnv 19 800 250 empty empty mapping 20 12 0 20 #c6ffc7 #404040 0;
#X obj -725 -216 cnv 19 1675 230 empty empty OSC_In 20 12 0 12 #c7c6ff #404040 0;
#X obj -704 -139 oscparse;
#X obj -704 -117 list trim;
#X msg -705 -186 listen 8000;
#X obj -704 -161 netreceive -u -b 8000;
#X obj -704 -94 list trim;
#X obj -704 -71 route h0 h1 both;
#X obj -464 580 dac~;
#X obj -520 544 clip~ -1 1;
#X obj -440 543 clip~ -1 1;
#X obj -469 -161 route f0 f1 f2;
#X obj -149 -161 route f0 f1 f2;
#X floatatom 201 -111 5 0 0 0 - - - 0;
#X floatatom 161 -112 5 0 0 0 - - - 0;
#X floatatom 241 -110 5 0 0 0 - - - 0;
#X obj 161 -161 route tt ii pp;
#X obj -469 -137 route x y;
#X obj -437 -107 route x y;
#X obj -406 -77 route x y;
#X obj -149 -137 route x y;
#X obj -117 -107 route x y;
#X obj -86 -77 route x y;
#X floatatom -469 -3 5 0 0 0 - - - 0;
#X floatatom -429 -3 5 0 0 0 - - - 0;
#X floatatom -389 -3 5 0 0 0 - - - 0;
#X floatatom -349 -3 5 0 0 0 - - - 0;
#X floatatom -309 -3 5 0 0 0 - - - 0;
#X floatatom -269 -3 5 0 0 0 - - - 0;
#X floatatom -149 -3 5 0 0 0 - - - 0;
#X floatatom -109 -3 5 0 0 0 - - - 0;
#X floatatom -69 -3 5 0 0 0 - - - 0;
#X floatatom -29 -3 5 0 0 0 - - - 0;
#X floatatom 11 -3 5 0 0 0 - - - 0;
#X floatatom 51 -3 5 0 0 0 - - - 0;
#X obj -670 204 clip 0 1;
#X obj -288 155 clip 0 1;
#X obj -491 452 tgl 19 0 empty empty empty 0 -10 0 12 #fcfcfc #000000 #000000 0 1;
#X obj -288 178 * 900;
#X obj -288 202 + 1900;
#N canvas 1111 364 450 300 invert 0;
#X obj 199 75 inlet;
#X obj 199 171 outlet;
#X obj 199 129 clip 0 1;
#X obj 131 123 tgl 19 0 empty empty empty 0 -10 0 12 #fcfcfc #000000 #000000 0 1;
#X obj 199 105 expr if($f2 \, $f1*(-1) +1 \, $f1);
#X obj 62 28 loadbang;
#X msg 62 52 1;
#X connect 0 0 4 0;
#X connect 2 0 1 0;
#X connect 3 0 4 1;
#X connect 4 0 2 0;
#X connect 5 0 6 0;
#X connect 6 0 3 0;
#X coords 0 -1 1 1 85 60 1 100 100;
#X restore -288 88 pd invert;
#N canvas 63 101 1241 663 layla_whistle 0;
#X obj 341 322 outlet~;
#X obj 332 55 inlet;
#X obj 625 48 inlet;
#X msg 625 72 \$1 200;
#X obj 625 96 vline~;
#X obj 419 94 noise~;
#X obj 332 203 *~;
#X obj 321 127 osc~ 800;
#X msg 699 47 0;
#X obj 800 43 loadbang;
#X obj 419 118 bp~ 800 30;
#X obj 327 156 *~ 0.3;
#X obj 333 224 *~ 0.1;
#X msg 259 74 \$1 200;
#X obj 259 98 line;
#X obj 418 159 *~ 0.4;
#X connect 1 0 13 0;
#X connect 2 0 3 0;
#X connect 3 0 4 0;
#X connect 4 0 6 1;
#X connect 5 0 10 0;
#X connect 6 0 12 0;
#X connect 7 0 11 0;
#X connect 8 0 3 0;
#X connect 9 0 8 0;
#X connect 10 0 15 0;
#X connect 11 0 6 0;
#X connect 12 0 0 0;
#X connect 13 0 14 0;
#X connect 14 0 7 0;
#X connect 14 0 10 1;
#X connect 15 0 6 0;
#X restore -614 493 pd layla_whistle;
#X floatatom -612 472 5 0 0 1 pitch\ in\ Hz - - 0;
#X floatatom -491 475 5 0 0 1 amplitude\ 0-1 - - 0;
#X obj -626 54 * 1;
#N canvas 1111 364 450 300 invert 0;
#X obj 199 75 inlet;
#X obj 199 171 outlet;
#X obj 199 129 clip 0 1;
#X obj 131 123 tgl 19 0 empty empty empty 0 -10 0 12 #fcfcfc #000000 #000000 0 1;
#X obj 199 105 expr if($f2 \, $f1*(-1) +1 \, $f1);
#X obj 62 28 loadbang;
#X msg 62 52 1;
#X connect 0 0 4 0;
#X connect 2 0 1 0;
#X connect 3 0 4 1;
#X connect 4 0 2 0;
#X connect 5 0 6 0;
#X connect 6 0 3 0;
#X coords 0 -1 1 1 85 60 1 100 100;
#X restore -671 115 pd invert;
#X obj -660 530 env~;
#X floatatom -660 554 5 0 0 0 - - - 0;
#X obj -249 44 * 1;
#X obj 306 101 cnv 19 700 76 empty empty Pitch\ score\ relative\ position 20 12 0 20 #c6feff #404040 0;
#X text 315 155 0.866 \, 0.77 \, 0.288 \, 0.977 \, 0.733 \, 0.177 \, 0.6 \, 0.44 \, 0.2 \, 0.377 \, 0.933 \, 0.55 \, 0.1 \, 0.355, f 98;
#X obj 305 226 cnv 19 700 76 empty empty Pitch\ score\ frequency 20 12 0 20 #c6feff #404040 0;
#X msg 312 267 2680;
#X text 307 244 1;
#X msg 364 270 2600;
#X text 363 249 2;
#X msg 413 272 2160;
#X text 417 249 3;
#X msg 468 272 2780, f 5;
#X text 469 236 4;
#X msg 525 264 2560;
#X text 524 243 5;
#X msg 575 271 2060;
#X text 579 248 6;
#X msg 627 261 2440;
#X msg 680 265 2300;
#X msg 727 266 2080;
#X msg 778 269 2240;
#X msg 828 272 2740;
#X text 622 241 7;
#X text 679 246 8;
#X text 734 250 9;
#X text 785 253 10;
#X text 823 254 11;
#X msg 871 271 2400;
#X text 868 253 12;
#X msg 917 270 1990;
#X text 914 251 13;
#X msg 964 275 2220;
#X text 958 250 14;
#X obj 311 316 * 1;
#X obj -613 443 * 1;
#X obj 100 100 cnv 19 200 200 empty empty empty 20 12 0 12 #9f9f9f #404040 0;
#X obj 110 110 cnv 19 180 180 empty empty empty 20 12 0 12 #dfdfdf #404040 0;
#X obj 111 253 cnv 19 35 37 empty empty empty 20 12 0 12 #ffffff #404040 0;
#X floatatom 110 253 5 0 0 0 - - - 12;
#X floatatom 110 273 5 0 0 0 - - - 12;
#X obj 271 125 vsl 19 162 0 1 0 0 empty empty vol 0 -9 0 12 #c6ffc7 #ff0400 #000000 0 1;
#X obj 251 125 vsl 19 162 0 1 0 0 empty empty pi 0 -9 0 12 #c6ffc7 #000000 #000000 0 1;
#N canvas 63 101 859 507 plotter 0;
#X obj 248 83 inlet;
#X obj 499 83 inlet;
#X obj 100 100 cnv 19 100 100 empty empty empty 20 12 0 12 #ffffff #404040 0;
#X obj 200 159 cnv 5 5 5 empty \$0-plotter-square empty 20 12 0 12 #00ff04 #404040 0;
#X obj 248 107 * 100;
#X obj 499 107 * 100;
#X floatatom 327 263 4 0 1000 0 - - - 0;
#X obj 376 290 t b f;
#X floatatom 376 263 5 0 500 0 - - - 0;
#X msg 327 350 pos \$1 \$2;
#X obj 327 318 pack 265 450;
#X obj 327 239 + 100;
#X obj 376 239 + 100;
#X obj 327 374 s \$0-plotter-square;
#X obj 248 154 * -1;
#X obj 248 178 + 100;
#X obj 499 154 * -1;
#X obj 499 178 + 100;
#X obj 399 28 loadbang;
#X msg 399 52 0.1;
#X connect 0 0 4 0;
#X connect 1 0 5 0;
#X connect 4 0 14 0;
#X connect 5 0 16 0;
#X connect 6 0 10 0;
#X connect 7 0 10 0;
#X connect 7 1 10 1;
#X connect 8 0 7 0;
#X connect 9 0 13 0;
#X connect 10 0 9 0;
#X connect 11 0 6 0;
#X connect 12 0 8 0;
#X connect 14 0 15 0;
#X connect 15 0 11 0;
#X connect 16 0 17 0;
#X connect 17 0 12 0;
#X connect 18 0 19 0;
#X connect 19 0 5 0;
#X connect 19 0 4 0;
#X coords 0 -1 1 1 100 100 1 100 100;
#X restore 110 110 pd plotter;
#X obj 231 271 tgl 19 0 empty empty help -30 10 0 12 #ff0400 #000000 #000000 0 1;
#X obj 350 480 sel 1;
#X msg 350 504 vis 1;
#X msg 396 503 vis 0;
#N canvas 232 451 727 562 \$0-help_leiyla_whistle_sample 0;
#X obj 112 19 cnv 19 500 20 empty empty first\,\ make\ sure\ you\ have\ installed\ cloud\ hands 20 12 0 12 #ffc7c6 #404040 0;
#X obj 112 59 cnv 19 500 20 empty empty following\ the\ instructions\ on\ the\ website 20 12 0 12 #ffc7c6 #404040 0;
#X obj 112 99 cnv 19 500 20 empty empty then\,\ activate\ your\ python\ environment 20 12 0 12 #ffc7c6 #404040 0;
#X obj 112 139 cnv 19 500 20 empty empty now\,\ you\ can\ execute\ the\ python\ script 20 12 0 12 #ffc7c6 #404040 0;
#X obj 112 179 cnv 19 500 20 empty empty a\ camera\ screen\ should\ open 20 12 0 12 #ffc7c6 #404040 0;
#X obj 112 219 cnv 19 500 20 empty empty if\ you\ move\ your\ hand\ across\ the\ camera\,\ the\ green\ point\ should\ move 20 12 0 12 #ffc7c6 #404040 0;
#X obj 112 259 cnv 19 500 20 empty empty now\ enable\ DSP 20 12 0 12 #ffc7c6 #404040 0;
#X text 132 41 https://github.com/grundton/cloud_hands;
#X text 126 120 conda activate cloudhands;
#X text 128 158 python python_script/Cam2Osc_grain.py;
#X obj 112 299 cnv 19 500 20 empty empty moving\ the\ dot\ to\ the\ left\ increases\ loudness 20 12 0 12 #ffc7c6 #404040 0;
#X obj 112 339 cnv 19 500 20 empty empty moving\ the\ dot\ to\ the\ top\ increases\ pitch 20 12 0 12 #ffc7c6 #404040 0;
#X obj 112 379 cnv 19 500 20 empty empty feel\ free\ to\ change\ the\ mapping\ inside\ the\ patch 20 12 0 12 #ffc7c6 #404040 0;
#X obj 112 419 cnv 19 500 20 empty empty check\ out\ the\ github\ page\ for\ other\ options 20 12 0 12 #ffc7c6 #404040 0;
#X obj 112 439 cnv 19 500 20 empty empty (change\ color\,\ disable\ screen\,\ dark\ screen) 20 12 0 12 #ffc7c6 #404040 0;
#X obj 112 479 cnv 19 500 20 empty empty if\ the\ green\ dot\ disappears\,\ try\ opening\ and\ closing\ the\ subpatch 20 12 0 12 #ffc7c6 #404040 0;
#X restore 352 556 pd \$0-help_leiyla_whistle_sample;
#X obj 350 528 s pd-\$0-help_leiyla_whistle_sample;
#X obj -670 180 - 0.2;
#X text -623 181 making a "quiet zone" for turning of;
#X connect 2 0 3 0;
#X connect 3 0 6 0;
#X connect 4 0 5 0;
#X connect 5 0 2 0;
#X connect 6 0 7 0;
#X connect 7 0 11 0;
#X connect 7 1 12 0;
#X connect 7 2 16 0;
#X connect 9 0 8 0;
#X connect 10 0 8 1;
#X connect 11 0 17 0;
#X connect 11 1 18 0;
#X connect 11 2 19 0;
#X connect 12 0 20 0;
#X connect 12 1 21 0;
#X connect 12 2 22 0;
#X connect 16 0 14 0;
#X connect 16 1 13 0;
#X connect 16 2 15 0;
#X connect 17 0 23 0;
#X connect 17 1 24 0;
#X connect 18 0 25 0;
#X connect 18 1 26 0;
#X connect 19 0 27 0;
#X connect 19 1 28 0;
#X connect 20 0 29 0;
#X connect 20 1 30 0;
#X connect 21 0 31 0;
#X connect 21 1 32 0;
#X connect 22 0 33 0;
#X connect 22 1 34 0;
#X connect 25 0 44 0;
#X connect 26 0 48 0;
#X connect 35 0 43 0;
#X connect 36 0 38 0;
#X connect 36 0 85 0;
#X connect 37 0 43 0;
#X connect 38 0 39 0;
#X connect 39 0 81 0;
#X connect 40 0 36 0;
#X connect 41 0 9 0;
#X connect 41 0 10 0;
#X connect 41 0 46 0;
#X connect 42 0 41 0;
#X connect 43 0 41 1;
#X connect 43 0 87 0;
#X connect 44 0 45 0;
#X connect 45 0 96 0;
#X connect 45 0 86 0;
#X connect 46 0 47 0;
#X connect 48 0 40 0;
#X connect 52 0 80 0;
#X connect 54 0 80 0;
#X connect 56 0 80 0;
#X connect 58 0 80 0;
#X connect 60 0 80 0;
#X connect 62 0 80 0;
#X connect 64 0 80 0;
#X connect 65 0 80 0;
#X connect 66 0 80 0;
#X connect 67 0 80 0;
#X connect 68 0 80 0;
#X connect 74 0 80 0;
#X connect 76 0 80 0;
#X connect 78 0 80 0;
#X connect 80 0 81 0;
#X connect 81 0 42 0;
#X connect 85 0 88 0;
#X connect 85 0 89 1;
#X connect 86 0 89 0;
#X connect 90 0 91 0;
#X connect 91 0 92 0;
#X connect 91 1 93 0;
#X connect 92 0 95 0;
#X connect 93 0 95 0;
#X connect 96 0 35 0;
#X coords 0 -1 1 1 200 200 1 100 100;
#X restore 1 1 pd sub_level;
#X coords 0 -1 1 1 202 202 1 0 0;
