#N canvas 348 174 1225 915 12;
#X obj 106 710 tabread4~;
#X obj 45 55 inlet;
#X floatatom 245 404 5 0 0 0 - - - 0;
#X floatatom 103 341 9 0 0 0 - - - 0;
#X floatatom 177 341 10 0 0 0 - - - 0;
#X obj 106 626 *~;
#X obj 106 650 +~;
#X text 88 55 bang to play;
#X obj 76 562 vline~;
#X msg 75 525 0 \, 1 \$1;
#X obj 119 398 -;
#X obj 119 422 /;
#X obj 106 905 outlet~;
#X obj 74 498 +;
#X msg 74 459 0;
#X msg 217 630 set \$1;
#X obj 38 605 env~;
#X floatatom 38 629 5 0 0 0 - - - 0;
#X obj 144 994 vsl 19 162 0 127 0 0 empty empty empty 0 -9 0 12 #fcfcfc #000000 #000000 0 1;
#X obj 119 446 * 1000;
#X msg 69 117 \$2;
#X msg 90 141 \$3;
#X msg 129 148 \$4;
#X msg 187 143 \$5;
#X text 269 629 array name passed as argument;
#X obj 227 556 symbol;
#N canvas 0 22 450 278 (subpatch) 0;
#X array \$0-window 256 float 1;
#A 0 0 0.1 0.2 0.3 0.4 0.5 0.6 0.7 0.8 0.9 1 1 1 1 1 1 1 1 1 1 1 1 1 1 1 1 1 1 1 1 1 1 1 1 1 1 1 1 1 1 1 1 1 1 1 1 1 1 1 1 1 1 1 1 1 1 1 1 1 1 1 1 1 1 1 1 1 1 1 1 1 1 1 1 1 1 1 1 1 1 1 1 1 1 1 1 1 1 1 1 1 1 1 1 1 1 1 1 1 1 1 1 1 1 1 1 1 1 1 1 1 1 1 1 1 1 1 1 1 1 1 1 1 1 1 1 1 1 1 1 1 1 1 1 1 1 1 1 1 1 1 1 1 1 1 1 1 1 1 1 1 1 1 1 1 1 1 1 1 1 1 1 1 1 1 1 1 1 1 1 1 1 1 1 1 1 1 1 1 1 1 1 1 1 1 1 1 1 1 1 1 1 1 1 1 1 1 1 1 1 1 1 1 1 1 1 1 1 1 1 1 1 1 1 1 1 1 1 1 1 1 1 1 1 1 1 1 1 1 1 1 1 1 1 1 1 1 1 1 1 1 1 1 1 1 0.9 0.8 0.7 0.6 0.5 0.4 0.3 0.2 0.1 0 0;
#X coords 0 1 255 -1 30 30 1 0 0;
#X restore 446 713 graph;
#X obj 269 757 env~;
#X floatatom 269 781 5 0 0 0 - - - 0;
#X obj 223 711 tabread4~ \$0-window;
#X obj 105 746 *~;
#X obj 591 180 loadbang;
#X obj 659 529 tabwrite \$0-window;
#X obj 611 348 until;
#X text 636 289 start;
#X obj 611 386 f;
#X obj 649 379 + 1;
#X obj 704 375 sel 0;
#X obj 611 289 bng 19 250 50 0 empty empty empty 17 7 0 10 #dfdfdf #000000 #000000;
#X obj 649 405 mod 256;
#X obj 591 204 t b b;
#X obj 649 429 t f f;
#X obj 660 506 clip 0 1;
#X obj 660 482 expr if($f1< 10 \, $f1/10 \, if($f1 < 244 \, 1 \, 1-($f1-244)/10));
#X obj 107 825 *~;
#X obj 218 683 *~ 256;
#X obj 358 548 vline~;
#X obj 45 79 t b a a a a b;
#X msg 357 511 1 1;
#X msg 400 511 0 1;
#X obj 392 65 inlet;
#X connect 0 0 30 0;
#X connect 1 0 47 0;
#X connect 2 0 11 1;
#X connect 3 0 10 0;
#X connect 4 0 10 1;
#X connect 4 0 6 1;
#X connect 5 0 6 0;
#X connect 6 0 0 0;
#X connect 8 0 5 0;
#X connect 8 0 16 0;
#X connect 8 0 45 0;
#X connect 9 0 8 0;
#X connect 10 0 11 0;
#X connect 10 0 5 1;
#X connect 11 0 19 0;
#X connect 13 0 9 0;
#X connect 14 0 13 0;
#X connect 15 0 0 0;
#X connect 16 0 17 0;
#X connect 19 0 13 1;
#X connect 20 0 3 0;
#X connect 21 0 4 0;
#X connect 22 0 2 0;
#X connect 23 0 25 0;
#X connect 25 0 15 0;
#X connect 27 0 28 0;
#X connect 29 0 30 1;
#X connect 30 0 27 0;
#X connect 30 0 44 0;
#X connect 31 0 40 0;
#X connect 33 0 35 0;
#X connect 35 0 36 0;
#X connect 36 0 39 0;
#X connect 37 0 33 1;
#X connect 38 0 33 0;
#X connect 39 0 35 1;
#X connect 39 0 37 0;
#X connect 39 0 41 0;
#X connect 40 0 38 0;
#X connect 41 0 43 0;
#X connect 41 1 32 1;
#X connect 42 0 32 0;
#X connect 43 0 42 0;
#X connect 44 0 12 0;
#X connect 45 0 29 0;
#X connect 46 0 44 1;
#X connect 47 0 14 0;
#X connect 47 1 20 0;
#X connect 47 2 21 0;
#X connect 47 3 22 0;
#X connect 47 4 23 0;
#X connect 47 5 48 0;
#X connect 48 0 46 0;
#X connect 49 0 46 0;
#X connect 50 0 49 0;
