#N canvas 0 192 1728 870 12;
#N canvas 208 246 1411 843 sub_level 0;
#X obj 100 100 cnv 19 1442 400 empty empty empty 20 12 0 12 #9f9f9f #404040 0;
#X obj 100 -211 cnv 19 230 300 empty empty arrays 20 12 0 20 #feffc6 #404040 0;
#X obj 114 -143 array define \$0-drums-l;
#X obj 114 -122 array define \$0-drums-r;
#X obj 114 -101 array define \$0-instrumental-l;
#X obj 114 -80 array define \$0-instrumental-r;
#X obj 114 -59 array define \$0-other-l;
#X obj 114 -38 array define \$0-other-r;
#X obj 114 -17 array define \$0-vocals-l;
#X obj 114 4 array define \$0-vocals-r;
#X obj 340 -211 cnv 19 1200 300 empty empty read\ into\ arrays 20 12 0 20 #c6ffc7 #404040 0;
#X obj 694 -98 soundfiler;
#X floatatom 694 -74 5 0 0 0 - - - 0;
#X floatatom 735 -74 5 0 0 0 - - - 0;
#X obj 694 -167 f \$0;
#X obj 694 -188 bng 19 250 50 0 empty empty empty 0 -10 0 12 #c6ffc7 #000000 #000000;
#X obj 1044 42 soundfiler;
#X floatatom 1044 66 5 0 0 0 - - - 0;
#X floatatom 1085 66 5 0 0 0 - - - 0;
#X obj 1044 -27 f \$0;
#X obj 1044 -48 bng 19 250 50 0 empty empty empty 0 -10 0 12 #c6ffc7 #000000 #000000;
#X obj 344 42 soundfiler;
#X floatatom 344 66 5 0 0 0 - - - 0;
#X floatatom 385 66 5 0 0 0 - - - 0;
#X obj 344 -27 f \$0;
#X obj 344 -48 bng 19 250 50 0 empty empty empty 0 -10 0 12 #c6ffc7 #000000 #000000;
#X obj 694 42 soundfiler;
#X floatatom 694 66 5 0 0 0 - - - 0;
#X floatatom 735 66 5 0 0 0 - - - 0;
#X obj 694 -27 f \$0;
#X obj 694 -48 bng 19 250 50 0 empty empty empty 0 -10 0 12 #c6ffc7 #000000 #000000;
#X obj 1265 -199 bng 100 250 50 0 empty empty empty 0 -10 0 12 #ffffff #00ff04 #000000;
#X obj 1132 -207 t b b b;
#X obj 1086 -67 t b b b;
#X obj 426 -75 s \$0-filesize;
#X obj 526 -75 s \$0-sr;
#X obj 100 520 cnv 19 1600 400 empty empty empty 20 12 0 12 #c6feff #404040 0;
#X obj 423 928 +~;
#X obj 299 823 f \$0;
#X obj 299 802 bng 19 250 50 0 empty empty empty 0 -10 0 12 #c6ffc7 #000000 #000000;
#X obj 437 823 f \$0;
#X obj 580 823 f \$0;
#X obj 580 802 bng 19 250 50 0 empty empty empty 0 -10 0 12 #c6ffc7 #000000 #000000;
#X obj 438 802 bng 19 250 50 0 empty empty empty 0 -10 0 12 #c6ffc7 #000000 #000000;
#X obj 728 823 f \$0;
#X obj 728 802 bng 19 250 50 0 empty empty empty 0 -10 0 12 #c6ffc7 #000000 #000000;
#X msg 299 845 set \$1-drums-l;
#X msg 437 845 set \$1-other-l;
#X msg 580 845 set \$1-vocals-l;
#X msg 728 845 set \$1-instrumental-l;
#X obj 161 732 bng 19 250 50 0 empty empty empty 0 -10 0 12 #fcfcfc #000000 #000000;
#X floatatom 99 613 5 0 0 0 - - - 0;
#X floatatom 727 684 10 0 0 0 - - - 0;
#X obj 239 868 stem_player.player;
#X obj 377 868 stem_player.player;
#X obj 520 868 stem_player.player;
#X obj 668 868 stem_player.player;
#X obj 703 1093 dac~;
#X obj 702 1038 clip~ -1 1;
#X obj 110 110 cnv 19 1422 380 empty empty empty 20 12 0 12 #dfdfdf #404040 0;
#X obj 138 211 hsl 220 30 0 1 0 0 \$0-drums-vol empty drums\ vol 10 15 0 20 #fcfcfc #000000 #000000 0 1;
#X obj 138 251 hsl 220 30 0 1 0 0 \$0-other-vol empty other\ vol 10 15 0 20 #fcfcfc #000000 #000000 0 1;
#X obj 138 291 hsl 220 30 0 1 0 0 \$0-vocals-vol empty vocals\ vol 10 15 0 20 #fcfcfc #000000 #000000 0 1;
#X obj 138 331 hsl 220 30 0 1 0 0 \$0-instrumental-vol empty instrumental\ vol 10 15 0 20 #fcfcfc #000000 #000000 0 1;
#X obj 239 892 *~;
#X obj 270 893 r \$0-drums-vol;
#X obj 378 892 *~;
#X obj 520 892 *~;
#X obj 668 892 *~;
#X obj 409 893 r \$0-other-vol;
#X obj 551 893 r \$0-vocals-vol;
#X obj 699 893 r \$0-instrumental-vol;
#X obj 186 923 snapshot~;
#X obj 113 926 metro 100;
#X obj 113 947 tgl 19 0 empty empty empty 0 -10 0 12 #fcfcfc #000000 #000000 0 1;
#X obj 113 970 loadbang;
#X obj 185 1015 s \$0-position-play;
#X obj 369 117 hsl 1000 250 0 1 0 0 empty \$0-position-play play\ position 10 15 0 20 #c6ffc7 #ff0400 #0400ff 0 1;
#N canvas 0 22 450 278 (subpatch) 0;
#X array \$0-drums 44100 float 2;
#X coords 0 1 44100 -1 1000 20 2 0 0;
#X restore 370 221 graph;
#N canvas 0 22 450 278 (subpatch) 0;
#X array \$0-vocals 44100 float 2;
#X coords 0 1 44100 -1 1000 20 2 0 0;
#X restore 370 301 graph;
#N canvas 0 22 450 278 (subpatch) 0;
#X array \$0-other 44100 float 2;
#X coords 0 1 44100 -1 1000 20 2 0 0;
#X restore 370 261 graph;
#N canvas 0 22 450 278 (subpatch) 0;
#X array \$0-instrumental 44100 float 2;
#X coords 0 1 44100 -1 1000 20 2 0 0;
#X restore 370 341 graph;
#X obj 1550 -211 cnv 19 1200 300 empty empty read\ into\ arrays 20 12 0 20 #c6ffc7 #404040 0;
#X obj 369 369 hsl 1000 19 0 1 0 0 \$0-start empty start 10 10 0 12 #ffffff #ff0400 #000000 0 1;
#X obj 369 390 hsl 1000 19 0 1 0 0 \$0-end empty end 10 10 0 12 #ffffff #ff0400 #000000 0 1;
#X obj 727 583 t b f;
#X obj 727 607 -;
#X obj 727 631 *;
#X obj 763 605 r \$0-filesize;
#X obj 369 411 hsl 1000 19 -4 4 0 0 \$0-speed empty speed 10 10 0 12 #ffffff #ff0400 #000000 0 1;
#X obj -166 747 loadbang;
#X msg -70 727 0;
#X floatatom 803 553 5 0 0 0 - - - 0;
#X obj 597 535 r \$0-start;
#X obj 803 531 r \$0-end;
#X obj 727 737 /;
#X obj 772 737 r \$0-sr;
#X obj 727 761 abs;
#X floatatom 237 537 5 0 0 0 - - - 0;
#X obj 727 707 t b f;
#X obj 307 520 r \$0-speed;
#X obj 367 447 bng 40 250 50 0 \$0-RST empty RST 10 20 0 12 #c6ffc7 #000000 #000000;
#X msg 227 737 bang;
#X obj 226 715 r \$0-RST;
#X obj 307 544 t b f;
#X obj 559 624 *;
#X obj 590 625 r \$0-filesize;
#X obj 156 533 loadbang;
#X obj 186 947 /;
#X floatatom 186 983 5 0 0 0 - - - 0;
#X floatatom 242 970 5 0 0 0 - - - 0;
#X obj 727 655 * -1;
#X obj 240 947 r \$0-filesize;
#X msg -70 749 1;
#X obj 782 1039 clip~ -1 1;
#X obj 1203 925 +~;
#X obj 1227 823 f \$0;
#X obj 1370 823 f \$0;
#X obj 1370 802 bng 19 250 50 0 empty empty empty 0 -10 0 12 #c6ffc7 #000000 #000000;
#X obj 1228 802 bng 19 250 50 0 empty empty empty 0 -10 0 12 #c6ffc7 #000000 #000000;
#X obj 1518 823 f \$0;
#X obj 1518 802 bng 19 250 50 0 empty empty empty 0 -10 0 12 #c6ffc7 #000000 #000000;
#X obj 951 752 bng 19 250 50 0 empty empty empty 0 -10 0 12 #fcfcfc #000000 #000000;
#X floatatom 889 633 5 0 0 0 - - - 0;
#X obj 1029 868 stem_player.player;
#X obj 1167 868 stem_player.player;
#X obj 1310 868 stem_player.player;
#X obj 1458 868 stem_player.player;
#X obj 1029 892 *~;
#X obj 1060 893 r \$0-drums-vol;
#X obj 1168 892 *~;
#X obj 1310 892 *~;
#X obj 1458 892 *~;
#X obj 1199 893 r \$0-other-vol;
#X obj 1341 893 r \$0-vocals-vol;
#X obj 1489 893 r \$0-instrumental-vol;
#X obj 983 683 * 1;
#X msg 1073 776 bang;
#X msg 1089 845 set \$1-drums-r;
#X msg 1227 845 set \$1-other-r;
#X msg 1370 845 set \$1-vocals-r;
#X msg 1518 845 set \$1-instrumental-r;
#X obj 1089 823 f \$0;
#X obj 1089 802 bng 19 250 50 0 empty empty empty 0 -10 0 12 #c6ffc7 #000000 #000000;
#X obj -150 99 cnv 19 230 600 empty empty midi 20 12 0 20 #ffe3c6 #404040 0;
#X obj -66 180 / 127;
#X obj -66 230 / 127;
#X obj -66 280 / 127;
#X obj -66 330 / 127;
#X obj -66 380 / 127;
#X obj -66 430 / 127;
#X obj -66 406 ctlin 14;
#X obj -66 456 ctlin 15;
#X obj 14 548 - 4;
#X obj 992 431 cnv 3 3 3 empty empty empty 20 12 0 12 #ff0400 #404040 0;
#X obj 1117 431 cnv 3 3 3 empty empty empty 20 12 0 12 #00ff04 #404040 0;
#X obj 1242 431 cnv 3 3 3 empty empty empty 20 12 0 12 #00ff04 #404040 0;
#X obj 1367 431 cnv 3 3 3 empty empty empty 20 12 0 12 #00ff04 #404040 0;
#X obj 367 431 cnv 3 3 3 empty empty empty 20 12 0 12 #00ff04 #404040 0;
#X obj 493 431 cnv 3 3 3 empty empty empty 20 12 0 12 #00ff04 #404040 0;
#X obj 618 431 cnv 3 3 3 empty empty empty 20 12 0 12 #00ff04 #404040 0;
#X obj 743 431 cnv 3 3 3 empty empty empty 20 12 0 12 #ff0400 #404040 0;
#X obj 868 431 cnv 3 3 3 empty empty empty 20 12 0 12 #00ff04 #404040 0;
#X msg -70 772 0;
#X obj 228 581 * 1;
#X obj 228 629 line;
#X obj 193 663 * 1;
#X floatatom 14 569 10 0 0 0 - - - 0;
#X obj -70 480 + 1;
#X msg 228 605 \$1 200;
#X obj 14 381 / 128;
#X obj 14 404 * 8;
#X floatatom 14 528 5 0 0 0 - - - 0;
#X obj 14 428 moses 1;
#X obj 14 473 - 0.0625;
#X obj -66 356 ctlin 13;
#X obj -150 -211 cnv 19 230 300 empty empty instructions 20 12 0 20 #e3c6ff #404040 0;
#X text -143 -179 SET button resets phasor;
#X obj -69 510 ctlin 60;
#X obj -69 534 sel 127;
#X obj -69 558 bng 19 250 50 0 empty empty empty 0 -10 0 12 #fcfcfc #000000 #000000;
#X text -143 -149 CYCLE button en/disables audio;
#X obj -41 687 ctlin;
#X floatatom -12 732 5 0 0 0 - - - 0;
#X obj -69 590 ctlin 46;
#X obj -69 614 sel 127;
#X obj -69 638 tgl 19 0 empty empty empty 0 -10 0 12 #fcfcfc #000000 #000000 0 1;
#X msg 1 636 \; pd dsp \$1;
#X obj -150 181 / 127;
#X obj -150 157 ctlin 41;
#X text -144 -124 PLAY button starts/stops;
#X obj -150 205 sel 1;
#X obj -150 299 tgl 19 0 empty empty empty 0 -10 0 12 #fcfcfc #000000 #000000 0 1;
#X obj -150 323 s stems_onoff;
#X obj 141 116 bng 19 250 50 0 empty empty load 20 10 0 12 #c6ffc7 #000000 #000000;
#X msg 344 -6 read -resize stems/other.wav \$1-other-l \$1-other-r;
#X msg 694 -146 read -resize stems/drums.wav \$1-drums-l \$1-drums-r;
#X msg 694 -6 read -resize stems/vocals.wav \$1-vocals-l \$1-vocals-r, f 47;
#X msg 1044 -6 read -resize stems/instrumental.wav \$1-instrumental-l \$1-instrumental-r, f 47;
#X obj 1513 110 tgl 19 0 empty empty help -30 10 0 12 #ff0400 #000000 #000000 0 1;
#X obj -66 306 ctlin 19;
#X obj -66 256 ctlin 18;
#X obj -66 206 ctlin 17;
#X obj -66 156 ctlin 16;
#X obj -150 229 s \$0-PLAY_in;
#X obj 417 447 tgl 40 0 \$0-PLAY \$0-PLAY_in PLAY 5 20 0 12 #c6ffc7 #000000 #000000 0 1;
#X obj -150 269 r \$0-PLAY;
#X obj 1629 -62 tgl 19 0 empty empty empty 0 -10 0 12 #fcfcfc #000000 #000000 0 1;
#X obj 1907 -116 array size;
#X obj 1936 -140 symbol;
#X floatatom 1907 -92 20 0 0 0 - - - 0;
#X floatatom 1907 -45 5 0 0 0 - - - 0;
#X text 1959 -70 size/num points of visualizer array;
#X text 1948 -45 increment;
#X msg 1629 -15 1;
#X obj 1629 9 + 0;
#X msg 1658 10 0;
#X msg 1652 -62 0;
#X floatatom 1816 -52 5 0 0 0 - - - 0;
#X obj 2319 -172 *;
#X obj 2319 -197 t f f;
#X obj 1629 -39 metro 0.1;
#X msg 1629 -86 1;
#X obj 1813 -203 loadbang;
#X msg 1813 -179 1;
#X obj 1844 -144 spigot;
#X obj 1820 -144 tgl 19 0 empty empty empty 0 -10 0 12 #fcfcfc #000000 #000000 0 1;
#X obj 1815 -2 t b b;
#X msg 1781 -179 0;
#X obj 2022 31 tabwrite \$0-drums;
#X obj 1904 -207 t b b;
#X obj 2022 6 +;
#X obj 2319 -148 t f f;
#X obj 2022 -18 tabread \$0-drums-l;
#X obj 2055 6 tabread \$0-drums-r;
#X obj 1843 -118 t b b;
#X obj 1574 -175 bng 19 250 50 0 empty empty empty 0 -10 0 12 #fcfcfc #000000 #000000;
#X obj 1936 -185 f \$0;
#X msg 1936 -162 \$1-drums-l;
#X obj 1907 -69 / 44100;
#X obj 1629 33 moses 44101;
#X obj 1815 -26 sel 44100;
#X obj 2202 6 +;
#X obj 2412 6 +;
#X obj 2592 6 +;
#X obj 2202 -18 tabread \$0-other-l;
#X obj 2235 6 tabread \$0-other-r;
#X obj 2202 31 tabwrite \$0-other;
#X obj 2412 -18 tabread \$0-vocals-l;
#X obj 2445 6 tabread \$0-vocals-r;
#X obj 2412 31 tabwrite \$0-vocals;
#X obj 2592 -18 tabread \$0-instrumental-l;
#X obj 2625 6 tabread \$0-instrumental-r;
#X obj 2592 31 tabwrite \$0-instrumental;
#X obj 1550 99 cnv 19 300 300 empty empty help\ file 20 12 0 20 #ffe3c6 #404040 0;
#X obj 1582 236 sel 1;
#X msg 1582 260 vis 1;
#X msg 1628 259 vis 0;
#N canvas 622 389 730 700 \$0-help_stem_player 0;
#X obj 112 99 cnv 19 500 20 empty empty first\,\ connect\ your\ MIDI\ device 20 12 0 12 #ffc7c6 #404040 0;
#X obj 112 139 cnv 19 500 20 empty empty then\,\ move\ your\ faders 20 12 0 12 #ffc7c6 #404040 0;
#X obj 112 199 cnv 19 500 20 empty empty now\ you\ can\ load\ the\ samples\ using\ the\ load\ button 20 12 0 12 #ffc7c6 #404040 0;
#X obj 112 239 cnv 19 500 20 empty empty this\ may\ take\ a\ moment\ (~30\ s) 20 12 0 12 #ffc7c6 #404040 0;
#X obj 112 279 cnv 19 500 20 empty empty make\ sure\ the\ audio\ files\ are\ in\ the\ folder\ "stems" 20 12 0 12 #ffc7c6 #404040 0;
#X obj 112 319 cnv 19 500 20 empty empty the\ button\ "RST"\ resets\ the\ playing\ position\ to\ 0\ (the\ beginning) 20 12 0 12 #ffc7c6 #404040 0;
#X obj 112 359 cnv 19 500 20 empty empty open\ the\ patch\ stem_player 20 12 0 12 #ffc7c6 #404040 0;
#X obj 112 159 ctlin;
#X floatatom 112 180 5 0 0 0 - - - 0;
#X floatatom 153 180 5 0 0 0 - - - 0;
#X floatatom 194 181 5 0 0 0 - - - 0;
#X obj 112 399 cnv 19 500 20 empty empty you\ can\ change\ the\ controller\ assignments\ to\ your\ liking 20 12 0 12 #ffc7c6 #404040 0;
#X obj 112 439 cnv 19 500 20 empty empty you\ find\ the\ midi\ assignments\ in\ the\ orange\ field 20 12 0 12 #ffe3c6 #404040 0;
#X obj 112 479 cnv 19 500 20 empty empty if\ you\ are\ using\ the\ nanoKONTROL2: 20 12 0 12 #ffc7c6 #404040 0;
#X obj 112 519 cnv 19 500 20 empty empty SET\ button\ (or\ RST\ in\ GUI)\ resets\ playing\ position\ to\ 0 20 12 0 12 #ffc7c6 #404040 0;
#X obj 112 559 cnv 19 500 20 empty empty CYCLE\ button\ enables/disables\ audio 20 12 0 12 #ffc7c6 #404040 0;
#X obj 112 599 cnv 19 500 20 empty empty PLAY\ button\ starts/stops\ audio 20 12 0 12 #ffc7c6 #404040 0;
#X connect 7 0 8 0;
#X connect 7 1 9 0;
#X connect 7 2 10 0;
#X restore 1582 307 pd \$0-help_stem_player;
#X obj 1582 284 s pd-\$0-help_stem_player;
#X connect 11 0 12 0;
#X connect 11 1 13 0;
#X connect 12 0 34 0;
#X connect 13 0 35 0;
#X connect 14 0 196 0;
#X connect 15 0 14 0;
#X connect 16 0 17 0;
#X connect 16 1 18 0;
#X connect 19 0 198 0;
#X connect 20 0 19 0;
#X connect 21 0 22 0;
#X connect 21 1 23 0;
#X connect 24 0 195 0;
#X connect 25 0 24 0;
#X connect 26 0 27 0;
#X connect 26 1 28 0;
#X connect 29 0 197 0;
#X connect 30 0 29 0;
#X connect 31 0 32 0;
#X connect 31 0 236 0;
#X connect 32 1 15 0;
#X connect 32 2 33 0;
#X connect 33 0 25 0;
#X connect 33 1 30 0;
#X connect 33 2 20 0;
#X connect 37 0 58 0;
#X connect 38 0 46 0;
#X connect 39 0 38 0;
#X connect 40 0 47 0;
#X connect 41 0 48 0;
#X connect 42 0 41 0;
#X connect 43 0 40 0;
#X connect 44 0 49 0;
#X connect 45 0 44 0;
#X connect 46 0 53 2;
#X connect 47 0 54 2;
#X connect 48 0 55 2;
#X connect 49 0 56 2;
#X connect 50 0 39 0;
#X connect 50 0 43 0;
#X connect 50 0 42 0;
#X connect 50 0 45 0;
#X connect 50 0 122 0;
#X connect 51 0 123 0;
#X connect 51 0 53 0;
#X connect 51 0 54 0;
#X connect 51 0 55 0;
#X connect 51 0 56 0;
#X connect 52 0 99 0;
#X connect 52 0 53 1;
#X connect 52 0 54 1;
#X connect 52 0 55 1;
#X connect 52 0 56 1;
#X connect 52 0 124 1;
#X connect 52 0 125 1;
#X connect 52 0 126 1;
#X connect 52 0 127 1;
#X connect 53 0 64 0;
#X connect 53 1 72 0;
#X connect 54 0 66 0;
#X connect 55 0 67 0;
#X connect 56 0 68 0;
#X connect 58 0 57 0;
#X connect 64 0 37 0;
#X connect 65 0 64 1;
#X connect 66 0 37 0;
#X connect 67 0 37 0;
#X connect 68 0 37 0;
#X connect 69 0 66 1;
#X connect 70 0 67 1;
#X connect 71 0 68 1;
#X connect 72 0 108 0;
#X connect 73 0 72 0;
#X connect 74 0 73 0;
#X connect 75 0 74 0;
#X connect 85 0 86 0;
#X connect 85 1 86 1;
#X connect 86 0 87 0;
#X connect 87 0 111 0;
#X connect 88 0 87 1;
#X connect 90 0 163 0;
#X connect 90 0 91 0;
#X connect 90 0 113 0;
#X connect 91 0 83 0;
#X connect 92 0 85 0;
#X connect 93 0 86 0;
#X connect 93 0 105 0;
#X connect 93 0 102 0;
#X connect 94 0 92 0;
#X connect 95 0 97 0;
#X connect 96 0 95 0;
#X connect 97 0 98 0;
#X connect 98 0 164 0;
#X connect 99 0 95 0;
#X connect 99 1 95 1;
#X connect 100 0 104 0;
#X connect 102 0 137 0;
#X connect 102 0 53 4;
#X connect 102 0 54 4;
#X connect 102 0 55 4;
#X connect 102 0 56 4;
#X connect 103 0 102 0;
#X connect 104 0 164 0;
#X connect 104 1 164 1;
#X connect 105 0 51 0;
#X connect 106 0 105 1;
#X connect 107 0 50 0;
#X connect 108 0 109 0;
#X connect 109 0 76 0;
#X connect 110 0 108 1;
#X connect 111 0 52 0;
#X connect 112 0 110 0;
#X connect 113 0 84 0;
#X connect 114 0 57 1;
#X connect 115 0 114 0;
#X connect 116 0 139 0;
#X connect 117 0 140 0;
#X connect 118 0 117 0;
#X connect 119 0 116 0;
#X connect 120 0 141 0;
#X connect 121 0 120 0;
#X connect 122 0 119 0;
#X connect 122 0 118 0;
#X connect 122 0 121 0;
#X connect 122 0 143 0;
#X connect 123 0 124 0;
#X connect 123 0 125 0;
#X connect 123 0 126 0;
#X connect 123 0 127 0;
#X connect 124 0 128 0;
#X connect 125 0 130 0;
#X connect 126 0 131 0;
#X connect 127 0 132 0;
#X connect 128 0 115 0;
#X connect 129 0 128 1;
#X connect 130 0 115 0;
#X connect 131 0 115 0;
#X connect 132 0 115 0;
#X connect 133 0 130 1;
#X connect 134 0 131 1;
#X connect 135 0 132 1;
#X connect 136 0 124 3;
#X connect 136 0 125 3;
#X connect 136 0 126 3;
#X connect 136 0 127 3;
#X connect 137 0 124 4;
#X connect 137 0 125 4;
#X connect 137 0 126 4;
#X connect 137 0 127 4;
#X connect 138 0 124 2;
#X connect 139 0 125 2;
#X connect 140 0 126 2;
#X connect 141 0 127 2;
#X connect 142 0 138 0;
#X connect 143 0 142 0;
#X connect 145 0 60 0;
#X connect 146 0 61 0;
#X connect 147 0 62 0;
#X connect 148 0 63 0;
#X connect 149 0 83 0;
#X connect 150 0 84 0;
#X connect 151 0 150 0;
#X connect 152 0 168 0;
#X connect 153 0 89 0;
#X connect 153 0 167 0;
#X connect 163 0 89 0;
#X connect 164 0 169 0;
#X connect 165 0 166 0;
#X connect 166 0 136 0;
#X connect 166 0 53 3;
#X connect 166 0 54 3;
#X connect 166 0 55 3;
#X connect 166 0 56 3;
#X connect 168 0 170 0;
#X connect 169 0 165 0;
#X connect 170 0 171 0;
#X connect 171 0 173 0;
#X connect 172 0 153 0;
#X connect 173 0 174 0;
#X connect 173 1 172 0;
#X connect 174 0 172 0;
#X connect 175 0 149 0;
#X connect 178 0 179 0;
#X connect 179 0 180 0;
#X connect 180 0 101 0;
#X connect 182 1 183 0;
#X connect 184 0 185 0;
#X connect 185 0 186 0;
#X connect 186 0 187 0;
#X connect 188 0 191 0;
#X connect 189 0 188 0;
#X connect 191 0 204 0;
#X connect 192 0 193 0;
#X connect 194 0 31 0;
#X connect 195 0 21 0;
#X connect 196 0 11 0;
#X connect 197 0 26 0;
#X connect 198 0 16 0;
#X connect 199 0 255 0;
#X connect 200 0 148 0;
#X connect 201 0 147 0;
#X connect 202 0 146 0;
#X connect 203 0 145 0;
#X connect 206 0 192 0;
#X connect 207 0 221 0;
#X connect 208 0 210 0;
#X connect 209 0 208 1;
#X connect 210 0 239 0;
#X connect 211 0 219 1;
#X connect 214 0 215 0;
#X connect 215 0 240 0;
#X connect 216 0 215 1;
#X connect 217 0 207 0;
#X connect 218 0 220 0;
#X connect 218 0 241 0;
#X connect 219 0 232 0;
#X connect 220 0 219 0;
#X connect 220 1 229 1;
#X connect 220 1 247 1;
#X connect 220 1 250 1;
#X connect 220 1 253 1;
#X connect 221 0 214 0;
#X connect 222 0 207 0;
#X connect 223 0 224 0;
#X connect 224 0 226 0;
#X connect 225 0 235 0;
#X connect 226 0 225 1;
#X connect 227 1 224 0;
#X connect 228 0 226 0;
#X connect 230 0 208 0;
#X connect 230 1 237 0;
#X connect 231 0 229 0;
#X connect 232 0 233 0;
#X connect 232 0 245 0;
#X connect 232 0 248 0;
#X connect 232 0 251 0;
#X connect 232 1 234 0;
#X connect 232 1 246 0;
#X connect 232 1 249 0;
#X connect 232 1 252 0;
#X connect 233 0 231 0;
#X connect 234 0 231 1;
#X connect 235 0 222 0;
#X connect 235 0 228 0;
#X connect 235 1 230 0;
#X connect 236 0 225 0;
#X connect 237 0 238 0;
#X connect 238 0 209 0;
#X connect 239 0 211 0;
#X connect 240 0 215 1;
#X connect 240 0 218 0;
#X connect 241 0 216 0;
#X connect 241 0 217 0;
#X connect 241 0 227 0;
#X connect 242 0 247 0;
#X connect 243 0 250 0;
#X connect 244 0 253 0;
#X connect 245 0 242 0;
#X connect 246 0 242 1;
#X connect 248 0 243 0;
#X connect 249 0 243 1;
#X connect 251 0 244 0;
#X connect 252 0 244 1;
#X connect 255 0 256 0;
#X connect 255 1 257 0;
#X connect 256 0 259 0;
#X connect 257 0 259 0;
#X coords 0 -1 1 1 1442 400 1 100 100;
#X restore 101 101 pd sub_level;
#X coords 0 -1 1 1 1444 402 1 100 100;
