#N canvas 0 38 864 1051 12;
#X obj 162 241 phasor~;
#X obj 162 265 *~;
#X obj 162 289 +~;
#X obj 162 313 tabread4~;
#X obj 442 57 inlet;
#X obj 384 57 inlet;
#X obj 310 57 inlet;
#X obj 161 421 outlet~;
#X obj 522 59 inlet;
#X obj 275 382 outlet~;
#X obj 671 60 inlet;
#X text 668 28 reset phase;
#X text 305 41 startpoint;
#X text 388 27 range;
#X text 441 39 set array;
#X text 515 27 speed;
#X msg 230 224 0;
#X floatatom 442 81 5 0 0 0 - - - 0;
#X floatatom 522 83 5 0 0 0 - - - 0;
#X floatatom 671 84 5 0 0 0 - - - 0;
#X floatatom 384 81 5 0 0 0 - - - 0;
#X floatatom 310 81 5 0 0 0 - - - 0;
#X obj 165 202 *;
#X obj 144 149 tgl 19 0 empty empty empty 0 -10 0 12 #fcfcfc #000000 #000000 0 1;
#X obj 144 125 r stems_onoff;
#X floatatom 109 227 5 0 0 0 - - - 0;
#X obj 144 173 t b f;
#X obj 155 372 *~;
#X obj 285 325 snapshot~;
#X floatatom 285 349 5 0 0 0 - - - 0;
#X obj 312 304 bng 19 250 50 0 empty empty empty 0 -10 0 12 #fcfcfc #000000 #000000;
#X connect 0 0 1 0;
#X connect 1 0 2 0;
#X connect 2 0 3 0;
#X connect 2 0 9 0;
#X connect 3 0 27 0;
#X connect 4 0 3 0;
#X connect 4 0 17 0;
#X connect 5 0 20 0;
#X connect 6 0 21 0;
#X connect 8 0 18 0;
#X connect 8 0 22 0;
#X connect 10 0 16 0;
#X connect 10 0 19 0;
#X connect 16 0 0 1;
#X connect 20 0 1 1;
#X connect 21 0 2 1;
#X connect 22 0 0 0;
#X connect 22 0 25 0;
#X connect 23 0 26 0;
#X connect 23 0 27 1;
#X connect 24 0 23 0;
#X connect 26 0 22 0;
#X connect 26 1 22 1;
#X connect 27 0 7 0;
#X connect 28 0 29 0;
#X connect 30 0 28 0;
