#N canvas 0 38 1728 1027 12;
#X declare -path elDabh_samples;
#N canvas 274 -1021 1665 856 sub_level 0;
#X obj 100 100 cnv 19 300 100 empty empty empty 20 12 0 12 #9f9f9f #404040 0;
#X obj 223 27 soundfiler;
#X floatatom 223 49 5 0 0 0 - - - 0;
#X obj 33 68 array define slicepoints;
#N canvas 498 536 450 300 paths_and_info 0;
#X obj 24 131 declare -path elDabh_samples;
#X text 23 20 for loudness in the first 2 videos of the tutorial you might need this:;
#X restore 33 10 pd paths_and_info;
#X obj 288 53 s sf;
#X obj 760 141 bng 19 250 50 0 empty empty empty 0 -10 0 12 #fcfcfc #000000 #000000;
#X obj 805 246 text define L_slicepoints;
#X obj 1149 244 text get L_slicepoints;
#X msg 1148 222 0;
#X obj 1147 268 array set slicepoints;
#X obj 987 303 list length;
#X obj 989 281 t l l;
#X obj 977 350 s slicepoints;
#X msg 987 327 resize \$1;
#X floatatom 929 327 5 0 0 0 - - - 0;
#X floatatom 999 649 5 0 0 0 - - - 0;
#X floatatom 1057 648 5 0 0 0 - - - 0;
#X floatatom 951 527 5 0 0 0 - - - 0;
#X obj 1000 575 tabread slicepoints;
#X obj 973 597 tabread slicepoints;
#X obj 971 575 + 1;
#X floatatom 973 621 10 0 0 0 - - - 0;
#X obj 936 423 r index;
#X floatatom 1113 646 5 0 0 0 - - - 0;
#X obj 1113 624 r sf;
#X msg 940 644 bang;
#X obj 944 942 clip~ -1 1;
#X obj 834 948 env~;
#X floatatom 869 949 5 0 0 0 - - - 0;
#X obj 1022 941 clip~ -1 1;
#X obj 760 165 t b b b;
#X obj 937 482 t b a;
#X obj 940 792 pack f f f f s;
#X obj 951 550 t f f b;
#X msg 940 817 next \$1 \$2 \$3 \$4 \$5;
#X msg 804 222 read elDabh/L_slicepoints.txt;
#X obj 872 160 pack s;
#X msg 871 193 set read \$1;
#X msg 929 132 elDabh/L_slicepoints.txt;
#X floatatom 315 664 5 0 0 0 - - - 0;
#X obj 331 587 notein;
#X obj 329 611 pack f f;
#X obj 316 639 stripnote;
#X obj 313 769 s index;
#X obj 315 746 +;
#X obj 398 713 hsl 162 19 0 127 0 0 empty empty empty -2 -10 0 12 #fcfcfc #000000 #000000 0 1;
#X obj 395 737 int;
#X obj 315 687 - 36;
#X obj 1131 770 bng 19 250 50 0 empty empty empty 0 -10 0 12 #fcfcfc #000000 #000000;
#X msg 1132 816 this \$1;
#X obj 940 668 t b b;
#X obj 555 109 t b b b;
#X obj 944 964 dac~;
#X obj 944 896 *~;
#X obj 944 918 *~ 1;
#X obj 105 105 cnv 19 290 90 empty empty empty 20 12 0 12 #dfdfdf #404040 0;
#X obj 108 112 bng 19 250 50 0 empty empty load\ buffer\ and\ slicepoints 20 10 0 12 #c6ffc7 #000000 #000000;
#X floatatom 109 177 5 0 0 1 samp\ idx - - 0;
#X obj 111 141 hsl 280 19 0 1 0 0 \$0-volume empty volume -2 10 0 12 #c6ffc7 #000000 #000000 0 1;
#X obj 227 171 hsl 162 19 0 127 0 0 empty empty empty -2 -10 0 12 #c6ffc7 #000000 #000000 0 1;
#X msg 1131 794 1;
#X obj 33 29 array define buffer_l;
#X obj 33 49 array define buffer_r;
#X msg 306 28 read -resize stems/vocals.wav buffer_l buffer_r;
#X msg 1169 647 symbol buffer_l;
#X obj 944 856 clone 10 one_shot_fileplayer buffer_l;
#X obj 1206 856 clone 10 one_shot_fileplayer buffer_r;
#X obj 818 846 r \$0-volume;
#X obj 1024 893 *~;
#X obj 1024 915 *~ 1;
#X msg 1289 647 symbol buffer_r;
#X obj 1209 781 pack f f f f s;
#X msg 1209 806 next \$1 \$2 \$3 \$4 \$5;
#X obj 371 110 tgl 19 0 empty empty help -30 10 0 12 #ff0400 #000000 #000000 0 1;
#X obj 411 164 sel 1;
#X msg 411 188 vis 1;
#X msg 457 187 vis 0;
#N canvas 625 291 726 533 \$0-help_voice_sample 0;
#X obj 112 99 cnv 19 500 20 empty empty first\,\ connect\ your\ MIDI\ device 20 12 0 12 #ffc7c6 #404040 0;
#X obj 112 139 cnv 19 500 20 empty empty then\,\ press\ any\ note\ on\ your\ device 20 12 0 12 #ffc7c6 #404040 0;
#X obj 112 179 cnv 19 500 20 empty empty the\ numbox\ "samp\ idx"\ should\ change 20 12 0 12 #ffc7c6 #404040 0;
#X obj 112 219 cnv 19 500 20 empty empty now\,\ you\ can\ load\ the\ audio\ and\ slicepoints 20 12 0 12 #ffc7c6 #404040 0;
#X obj 112 259 cnv 19 500 20 empty empty make\ sure\ the\ audio\ "vocals.wav"\ is\ in\ folder\ "stems" 20 12 0 12 #ffc7c6 #404040 0;
#X obj 112 299 cnv 19 500 20 empty empty make\ sure\ the\ slicepoints\ "L_slicepoints.wav"\ is\ in\ folder\ "elDabh" 20 12 0 12 #ffc7c6 #404040 0;
#X obj 112 339 cnv 19 500 20 empty empty enable\ DSP\ and\ move\ volume\ slider 20 12 0 12 #ffc7c6 #404040 0;
#X restore 459 312 pd \$0-help_voice_sample;
#X obj 411 212 s pd-\$0-help_voice_sample;
#X connect 1 0 2 0;
#X connect 1 1 5 0;
#X connect 6 0 31 0;
#X connect 8 0 12 0;
#X connect 8 0 10 0;
#X connect 9 0 8 0;
#X connect 11 0 14 0;
#X connect 11 0 15 0;
#X connect 12 0 11 0;
#X connect 14 0 13 0;
#X connect 16 0 33 1;
#X connect 16 0 72 1;
#X connect 17 0 33 2;
#X connect 17 0 72 2;
#X connect 18 0 34 0;
#X connect 19 0 17 0;
#X connect 20 0 22 0;
#X connect 21 0 20 0;
#X connect 22 0 16 0;
#X connect 23 0 32 0;
#X connect 24 0 33 3;
#X connect 24 0 72 3;
#X connect 25 0 24 0;
#X connect 26 0 51 0;
#X connect 27 0 53 0;
#X connect 28 0 29 0;
#X connect 30 0 53 1;
#X connect 31 1 9 0;
#X connect 31 2 36 0;
#X connect 32 0 26 0;
#X connect 32 1 18 0;
#X connect 33 0 35 0;
#X connect 34 0 21 0;
#X connect 34 1 19 0;
#X connect 34 2 65 0;
#X connect 34 2 71 0;
#X connect 35 0 66 0;
#X connect 36 0 7 0;
#X connect 37 0 38 0;
#X connect 38 0 36 0;
#X connect 39 0 37 0;
#X connect 40 0 48 0;
#X connect 41 0 42 0;
#X connect 41 1 42 1;
#X connect 42 0 43 0;
#X connect 43 0 40 0;
#X connect 45 0 44 0;
#X connect 45 0 58 0;
#X connect 46 0 47 0;
#X connect 47 0 45 1;
#X connect 48 0 45 0;
#X connect 49 0 61 0;
#X connect 50 0 66 1;
#X connect 50 0 67 1;
#X connect 51 0 33 0;
#X connect 51 0 72 0;
#X connect 51 1 49 0;
#X connect 52 0 64 0;
#X connect 52 1 6 0;
#X connect 52 2 39 0;
#X connect 54 0 55 0;
#X connect 55 0 27 0;
#X connect 55 0 28 0;
#X connect 57 0 52 0;
#X connect 60 0 46 0;
#X connect 61 0 50 0;
#X connect 64 0 1 0;
#X connect 65 0 33 4;
#X connect 66 0 54 0;
#X connect 67 0 69 0;
#X connect 68 0 54 1;
#X connect 68 0 69 1;
#X connect 69 0 70 0;
#X connect 70 0 30 0;
#X connect 71 0 72 4;
#X connect 72 0 73 0;
#X connect 73 0 67 0;
#X connect 74 0 75 0;
#X connect 75 0 76 0;
#X connect 75 1 77 0;
#X connect 76 0 79 0;
#X connect 77 0 79 0;
#X coords 0 -1 1 1 300 100 1 100 100;
#X restore 100 100 pd sub_level;
#X coords 0 -1 1 1 300 100 1 100 100;
